<?xml version="1.0" encoding="utf-8"?>
<!-- Generator: Adobe Illustrator 16.0.0, SVG Export Plug-In . SVG Version: 6.00 Build 0)  -->
<!DOCTYPE svg PUBLIC "-//W3C//DTD SVG 1.1//EN" "http://www.w3.org/Graphics/SVG/1.1/DTD/svg11.dtd">
<svg version="1.1" id="Layer_1" xmlns="http://www.w3.org/2000/svg" xmlns:xlink="http://www.w3.org/1999/xlink" x="0px" y="0px"
	 width="150px" height="104px" viewBox="0 0 150 104" enable-background="new 0 0 150 104" xml:space="preserve">
<g>
	<polygon fill="#EDE5F6" points="2,2.092 2.313,1.097 34.781,1.097 34.781,102.972 2.646,102.972 2.833,102.972 2,101.977 
		2,102.494 2.222,102.141 2,102.039 1,101.002 1,3.142 	"/>
	<g>
		<line fill="none" stroke="#8E2DE2" stroke-miterlimit="10" x1="35.271" y1="89.922" x2="35.271" y2="0.5"/>
		<line fill="none" stroke="#8E2DE2" stroke-miterlimit="10" x1="35.271" y1="102.972" x2="35.271" y2="94.432"/>
	</g>
	<g>
		<path stroke="#8E2DE2" stroke-width="2" stroke-miterlimit="10" d="M12.841,39.3h8.6H12.841z"/>
		<path stroke="#8E2DE2" stroke-width="2" stroke-miterlimit="10" d="M12.841,47.508h8.6H12.841z"/>
		<path stroke="#8E2DE2" stroke-width="2" stroke-miterlimit="10" d="M12.841,55.715h8.6H12.841z"/>
		<path stroke="#8E2DE2" stroke-width="2" stroke-miterlimit="10" d="M12.841,63.923h8.6H12.841z"/>
	</g>
	<text transform="matrix(1.0052 0 0 1 14.1621 91.4463)" fill="#8E2DE2" font-family="'MyriadPro-Semibold'" font-size="11.9384">1</text>
	<rect x="6.841" y="14.03" fill="#F1F2F2" stroke="#8E2DE2" stroke-width="0.8" width="22.1" height="7.96"/>
	
</g>
</svg>
