<?xml version="1.0" encoding="utf-8"?>
<!-- Generator: Adobe Illustrator 16.0.0, SVG Export Plug-In . SVG Version: 6.00 Build 0)  -->
<!DOCTYPE svg PUBLIC "-//W3C//DTD SVG 1.1//EN" "http://www.w3.org/Graphics/SVG/1.1/DTD/svg11.dtd">
<svg version="1.1" id="Layer_1" xmlns="http://www.w3.org/2000/svg" xmlns:xlink="http://www.w3.org/1999/xlink" x="0px" y="0px"
	 width="150px" height="104px" viewBox="0 0 150 104" enable-background="new 0 0 150 104" xml:space="preserve">
<polygon fill="#EDE5F6" points="148.969,3.142 148.969,101.002 147.969,102.039 147.747,102.141 147.969,102.494 147.969,101.977 
	147.135,102.972 147.322,102.972 115.188,102.972 115.188,1.097 147.656,1.097 147.969,2.092 "/>
<g>
	<line fill="none" stroke="#8E2DE2" stroke-miterlimit="10" x1="114.697" y1="0.5" x2="114.697" y2="89.922"/>
	<line fill="none" stroke="#8E2DE2" stroke-miterlimit="10" x1="114.697" y1="94.432" x2="114.697" y2="102.972"/>
</g>
<g>
	<path stroke="#8E2DE2" stroke-width="2" stroke-miterlimit="10" d="M128.527,39.3h8.601H128.527z"/>
	<path stroke="#8E2DE2" stroke-width="2" stroke-miterlimit="10" d="M128.527,47.508h8.601H128.527z"/>
	<path stroke="#8E2DE2" stroke-width="2" stroke-miterlimit="10" d="M128.527,55.715h8.601H128.527z"/>
	<path stroke="#8E2DE2" stroke-width="2" stroke-miterlimit="10" d="M128.527,63.923h8.601H128.527z"/>
</g>
<text transform="matrix(1.0052 0 0 1 129.8066 91.4463)" fill="#8E2DE2" font-family="'MyriadPro-Semibold'" font-size="11.9384">1</text>
<rect x="121.028" y="14.03" fill="#F1F2F2" stroke="#8E2DE2" stroke-width="0.8" width="22.1" height="7.96"/>
</svg>
