<?xml version="1.0" encoding="utf-8"?>
<!-- Generator: Adobe Illustrator 23.0.1, SVG Export Plug-In . SVG Version: 6.00 Build 0)  -->
<svg version="1.1" id="Layer_1" xmlns="http://www.w3.org/2000/svg" xmlns:xlink="http://www.w3.org/1999/xlink" x="0px" y="0px"
	 width="150px" height="104px" viewBox="0 0 150 104" style="enable-background:new 0 0 150 104;" xml:space="preserve">
<style type="text/css">
	.st0{fill:#EDE5F6;}
	.st1{fill:none;stroke:#8E2DE2;stroke-miterlimit:10;}
	.st2{stroke:#8E2DE2;stroke-width:2;stroke-miterlimit:10;}
	.st3{enable-background:new    ;}
	.st4{fill:#8E2DE2;}
	.st5{fill:#F1F2F2;stroke:#8E2DE2;stroke-width:0.8;}
</style>
<g>
	<polygon class="st0" points="150,3.1 150,101 149,102 148.8,102.1 149,102.5 149,102 148.2,103 148.4,103 116.2,103 116.2,1.1 
		148.7,1.1 149,2.1 	"/>
	<g>
		<line class="st1" x1="115.7" y1="0.5" x2="115.7" y2="89.9"/>
		<line class="st1" x1="115.7" y1="94.4" x2="115.7" y2="103"/>
	</g>
</g>
<g>
	<g>
		<path class="st2" d="M128.3,44.4h8.6H128.3z"/>
		<path class="st2" d="M128.3,52.6h8.6H128.3z"/>
		<path class="st2" d="M128.3,60.8h8.6H128.3z"/>
		<path class="st2" d="M128.3,69h8.6H128.3z"/>
	</g>
	<g class="st3">
		<path class="st4" d="M129.9,91.4v-0.9l0.9-0.8c1.8-1.7,2.7-2.6,2.7-3.7c0-0.7-0.4-1.3-1.4-1.3c-0.7,0-1.3,0.3-1.7,0.6l-0.4-1
			c0.6-0.5,1.4-0.8,2.4-0.8c1.7,0,2.6,1.1,2.6,2.4c0,1.4-1,2.5-2.3,3.7l-0.7,0.6v0h3.2v1.2H129.9z"/>
	</g>
	<g class="st3">
		<path class="st4" d="M132.2,9.5L132.2,9.5l-1.5,0.7l-0.3-1.1l1.9-0.9h1.2V16h-1.4V9.5z"/>
	</g>
	<rect x="121.6" y="23.7" class="st5" width="22.1" height="8"/>
</g>
</svg>
